<svg width="242" height="61" viewBox="0 0 242 61" fill="none" xmlns="http://www.w3.org/2000/svg">
<path d="M1.32102 14V3.09091H5.13494C5.89489 3.09091 6.52166 3.2223 7.01527 3.48509C7.50888 3.74432 7.87642 4.0941 8.1179 4.53445C8.35938 4.97124 8.48011 5.45597 8.48011 5.98864C8.48011 6.45739 8.39666 6.84446 8.22976 7.14986C8.06641 7.45526 7.84979 7.69673 7.5799 7.87429C7.31357 8.05185 7.02415 8.18324 6.71165 8.26847V8.375C7.04545 8.39631 7.38104 8.51349 7.7184 8.72656C8.05575 8.93963 8.33807 9.24503 8.56534 9.64276C8.79261 10.0405 8.90625 10.527 8.90625 11.1023C8.90625 11.6491 8.78196 12.141 8.53338 12.5778C8.2848 13.0146 7.8924 13.3608 7.35618 13.6165C6.81996 13.8722 6.12216 14 5.26278 14H1.32102ZM2.64205 12.8281H5.26278C6.12571 12.8281 6.73828 12.6612 7.1005 12.3274C7.46626 11.9901 7.64915 11.5817 7.64915 11.1023C7.64915 10.733 7.55504 10.392 7.36683 10.0795C7.17862 9.76349 6.91051 9.51136 6.5625 9.32315C6.21449 9.13139 5.80256 9.03551 5.3267 9.03551H2.64205V12.8281ZM2.64205 7.88494H5.09233C5.49006 7.88494 5.84872 7.80682 6.16832 7.65057C6.49148 7.49432 6.74716 7.27415 6.93537 6.99006C7.12713 6.70597 7.22301 6.37216 7.22301 5.98864C7.22301 5.50923 7.05611 5.10263 6.7223 4.76882C6.38849 4.43146 5.85938 4.26278 5.13494 4.26278H2.64205V7.88494ZM11.0769 14V3.09091H17.6607V4.26278H12.3979V7.94886H17.3198V9.12074H12.3979V12.8281H17.7459V14H11.0769ZM28.8201 6.5H27.4991C27.421 6.12003 27.2843 5.78622 27.089 5.49858C26.8972 5.21094 26.6628 4.96946 26.3858 4.77415C26.1124 4.57528 25.8088 4.42614 25.475 4.3267C25.1412 4.22727 24.7931 4.17756 24.4309 4.17756C23.7704 4.17756 23.1721 4.34446 22.6358 4.67827C22.1032 5.01207 21.6788 5.50391 21.3627 6.15376C21.0502 6.80362 20.894 7.60085 20.894 8.54545C20.894 9.49006 21.0502 10.2873 21.3627 10.9371C21.6788 11.587 22.1032 12.0788 22.6358 12.4126C23.1721 12.7464 23.7704 12.9134 24.4309 12.9134C24.7931 12.9134 25.1412 12.8636 25.475 12.7642C25.8088 12.6648 26.1124 12.5174 26.3858 12.3221C26.6628 12.1232 26.8972 11.88 27.089 11.5923C27.2843 11.3011 27.421 10.9673 27.4991 10.5909H28.8201C28.7207 11.1484 28.5396 11.6474 28.2768 12.0877C28.014 12.5281 27.6873 12.9027 27.2967 13.2116C26.9061 13.517 26.4675 13.7496 25.981 13.9094C25.498 14.0692 24.9814 14.1491 24.4309 14.1491C23.5005 14.1491 22.6731 13.9219 21.9487 13.4673C21.2243 13.0128 20.6543 12.3665 20.2388 11.5284C19.8233 10.6903 19.6156 9.69602 19.6156 8.54545C19.6156 7.39489 19.8233 6.40057 20.2388 5.5625C20.6543 4.72443 21.2243 4.07812 21.9487 3.62358C22.6731 3.16903 23.5005 2.94176 24.4309 2.94176C24.9814 2.94176 25.498 3.02166 25.981 3.18146C26.4675 3.34126 26.9061 3.57564 27.2967 3.88459C27.6873 4.18999 28.014 4.56285 28.2768 5.0032C28.5396 5.43999 28.7207 5.93892 28.8201 6.5ZM30.9548 14V3.09091H32.2758V8.50284H32.4037L37.3042 3.09091H39.0301L34.4491 8.01278L39.0301 14H37.4321L33.6395 8.92898L32.2758 10.4631V14H30.9548ZM40.74 14V3.09091H47.3238V4.26278H42.061V7.94886H46.9829V9.12074H42.061V12.8281H47.409V14H40.74ZM49.7048 14V3.09091H53.3909C54.2432 3.09091 54.9427 3.23651 55.4896 3.5277C56.0365 3.81534 56.4413 4.21129 56.7041 4.71555C56.9669 5.21982 57.0983 5.79332 57.0983 6.43608C57.0983 7.07884 56.9669 7.64879 56.7041 8.14595C56.4413 8.64311 56.0383 9.03374 55.4949 9.31783C54.9516 9.59837 54.2574 9.73864 53.4122 9.73864H50.4292V8.54545H53.3696C53.952 8.54545 54.4207 8.46023 54.7758 8.28977C55.1345 8.11932 55.3937 7.87784 55.5535 7.56534C55.7169 7.24929 55.7986 6.87287 55.7986 6.43608C55.7986 5.99929 55.7169 5.61754 55.5535 5.29084C55.3902 4.96413 55.1292 4.712 54.7705 4.53445C54.4118 4.35334 53.9378 4.26278 53.3483 4.26278H51.0258V14H49.7048ZM54.8398 9.09943L57.5244 14H55.9903L53.3483 9.09943H54.8398ZM60.2157 3.09091V6.84091H59.0439V3.09091H60.2157ZM68.5906 5.81818C68.5267 5.27841 68.2675 4.85938 67.8129 4.56108C67.3584 4.26278 66.8009 4.11364 66.1404 4.11364C65.6574 4.11364 65.2348 4.19176 64.8726 4.34801C64.5139 4.50426 64.2334 4.7191 64.031 4.99254C63.8321 5.26598 63.7327 5.5767 63.7327 5.92472C63.7327 6.21591 63.8019 6.46626 63.9404 6.67578C64.0825 6.88175 64.2636 7.05398 64.4838 7.19247C64.7039 7.32741 64.9347 7.43928 65.1762 7.52805C65.4177 7.61328 65.6396 7.68253 65.8421 7.7358L66.95 8.03409C67.2341 8.10866 67.5502 8.21165 67.8982 8.34304C68.2497 8.47443 68.5853 8.65376 68.9049 8.88104C69.2281 9.10476 69.4944 9.3924 69.7039 9.74396C69.9134 10.0955 70.0182 10.527 70.0182 11.0384C70.0182 11.6278 69.8637 12.1605 69.5548 12.6364C69.2494 13.1122 68.8019 13.4904 68.2124 13.771C67.6265 14.0515 66.9145 14.1918 66.0764 14.1918C65.2952 14.1918 64.6187 14.0657 64.047 13.8136C63.4788 13.5614 63.0313 13.2099 62.7046 12.7589C62.3815 12.3079 62.1986 11.7841 62.156 11.1875H63.5196C63.5551 11.5994 63.6936 11.9403 63.9351 12.2102C64.1801 12.4766 64.4891 12.6754 64.8619 12.8068C65.2384 12.9347 65.6432 12.9986 66.0764 12.9986C66.5807 12.9986 67.0335 12.9169 67.4347 12.7536C67.836 12.5866 68.1539 12.3558 68.3882 12.0611C68.6226 11.7628 68.7398 11.4148 68.7398 11.017C68.7398 10.6548 68.6386 10.3601 68.4362 10.1328C68.2338 9.90554 67.9674 9.72088 67.6372 9.57884C67.3069 9.43679 66.95 9.3125 66.5665 9.20597L65.2242 8.82244C64.3719 8.57741 63.6972 8.22763 63.2 7.77308C62.7029 7.31854 62.4543 6.72372 62.4543 5.98864C62.4543 5.37784 62.6194 4.84517 62.9497 4.39062C63.2835 3.93253 63.7309 3.57741 64.292 3.32528C64.8566 3.0696 65.4869 2.94176 66.183 2.94176C66.8861 2.94176 67.5111 3.06783 68.058 3.31996C68.6048 3.56854 69.0381 3.90945 69.3577 4.34268C69.6808 4.77592 69.8513 5.26776 69.8691 5.81818H68.5906Z" fill="black"/>
<path d="M89.0729 8H234" stroke="black" stroke-width="1.5"/>
<path d="M6.94318 20.7273V44H2.02273V20.7273H6.94318ZM30.4574 20.7273V44H26.2074L16.0824 29.3523H15.9119V44H10.9915V20.7273H15.3097L25.3551 35.3636H25.5597V20.7273H30.4574ZM33.6364 24.7841V20.7273H52.75V24.7841H45.625V44H40.7614V24.7841H33.6364ZM55.8977 44V20.7273H71.5795V24.7841H60.8182V30.3295H70.7727V34.3864H60.8182V39.9432H71.625V44H55.8977ZM75.4915 44V20.7273H80.4119V39.9432H90.3892V44H75.4915ZM93.6477 44V20.7273H98.5682V39.9432H108.545V44H93.6477ZM116.724 20.7273V44H111.804V20.7273H116.724ZM136.205 28.25C136.045 27.697 135.822 27.2083 135.534 26.7841C135.246 26.3523 134.894 25.9886 134.477 25.6932C134.068 25.3902 133.598 25.1591 133.068 25C132.545 24.8409 131.966 24.7614 131.33 24.7614C130.14 24.7614 129.095 25.0568 128.193 25.6477C127.299 26.2386 126.602 27.0985 126.102 28.2273C125.602 29.3485 125.352 30.7197 125.352 32.3409C125.352 33.9621 125.598 35.3409 126.091 36.4773C126.583 37.6136 127.28 38.4811 128.182 39.0795C129.083 39.6705 130.148 39.9659 131.375 39.9659C132.489 39.9659 133.439 39.7689 134.227 39.375C135.023 38.9735 135.629 38.4091 136.045 37.6818C136.47 36.9545 136.682 36.0947 136.682 35.1023L137.682 35.25H131.682V31.5455H141.42V34.4773C141.42 36.5227 140.989 38.2803 140.125 39.75C139.261 41.2121 138.072 42.3409 136.557 43.1364C135.042 43.9242 133.307 44.3182 131.352 44.3182C129.17 44.3182 127.254 43.8371 125.602 42.875C123.951 41.9053 122.663 40.5303 121.739 38.75C120.822 36.9621 120.364 34.8409 120.364 32.3864C120.364 30.5 120.636 28.8182 121.182 27.3409C121.735 25.8561 122.508 24.5985 123.5 23.5682C124.492 22.5379 125.648 21.7538 126.966 21.2159C128.284 20.678 129.712 20.4091 131.25 20.4091C132.568 20.4091 133.795 20.6023 134.932 20.9886C136.068 21.3674 137.076 21.9053 137.955 22.6023C138.841 23.2992 139.564 24.1288 140.125 25.0909C140.686 26.0455 141.045 27.0985 141.205 28.25H136.205ZM145.116 44V20.7273H160.798V24.7841H150.037V30.3295H159.991V34.3864H150.037V39.9432H160.844V44H145.116ZM184.176 20.7273V44H179.926L169.801 29.3523H169.631V44H164.71V20.7273H169.028L179.074 35.3636H179.278V20.7273H184.176ZM208.776 28.875H203.798C203.707 28.2311 203.522 27.6591 203.241 27.1591C202.961 26.6515 202.601 26.2197 202.162 25.8636C201.723 25.5076 201.215 25.2348 200.639 25.0455C200.071 24.8561 199.454 24.7614 198.787 24.7614C197.582 24.7614 196.533 25.0606 195.639 25.6591C194.745 26.25 194.052 27.1136 193.56 28.25C193.067 29.3788 192.821 30.75 192.821 32.3636C192.821 34.0227 193.067 35.4167 193.56 36.5455C194.06 37.6742 194.757 38.5265 195.651 39.1023C196.545 39.678 197.579 39.9659 198.753 39.9659C199.412 39.9659 200.022 39.8788 200.582 39.7045C201.151 39.5303 201.654 39.2765 202.094 38.9432C202.533 38.6023 202.897 38.1894 203.185 37.7045C203.48 37.2197 203.685 36.6667 203.798 36.0455L208.776 36.0682C208.647 37.1364 208.325 38.1667 207.81 39.1591C207.302 40.1439 206.616 41.0265 205.753 41.8068C204.897 42.5795 203.874 43.1932 202.685 43.6477C201.503 44.0947 200.166 44.3182 198.673 44.3182C196.598 44.3182 194.741 43.8485 193.105 42.9091C191.476 41.9697 190.188 40.6098 189.241 38.8295C188.302 37.0492 187.832 34.8939 187.832 32.3636C187.832 29.8258 188.31 27.6667 189.264 25.8864C190.219 24.1061 191.514 22.75 193.151 21.8182C194.787 20.8788 196.628 20.4091 198.673 20.4091C200.022 20.4091 201.272 20.5985 202.423 20.9773C203.582 21.3561 204.609 21.9091 205.503 22.6364C206.397 23.3561 207.124 24.2386 207.685 25.2841C208.253 26.3295 208.616 27.5265 208.776 28.875ZM212.304 44V20.7273H227.986V24.7841H217.224V30.3295H227.179V34.3864H217.224V39.9432H228.031V44H212.304Z" fill="#8B2332"/>
<path d="M0 60H234.42" stroke="black" stroke-width="1.5"/>
</svg>
